<?xml version="1.0" encoding="UTF-8" standalone="no"?>
<!-- Created with Inkscape (http://www.inkscape.org/) -->

<svg
   width="79.375mm"
   height="11.90625mm"
   viewBox="0 0 79.375 11.90625"
   version="1.1"
   id="svg1"
   inkscape:version="1.4 (86a8ad7, 2024-10-11)"
   sodipodi:docname="logo-craftools.svg"
   xmlns:inkscape="http://www.inkscape.org/namespaces/inkscape"
   xmlns:sodipodi="http://sodipodi.sourceforge.net/DTD/sodipodi-0.dtd"
   xmlns:xlink="http://www.w3.org/1999/xlink"
   xmlns="http://www.w3.org/2000/svg"
   xmlns:svg="http://www.w3.org/2000/svg">
  <sodipodi:namedview
     id="namedview1"
     pagecolor="#ffffff"
     bordercolor="#000000"
     borderopacity="0.25"
     inkscape:showpageshadow="2"
     inkscape:pageopacity="0.0"
     inkscape:pagecheckerboard="0"
     inkscape:deskcolor="#d1d1d1"
     inkscape:document-units="mm"
     inkscape:zoom="2.1914983"
     inkscape:cx="294.31919"
     inkscape:cy="54.072595"
     inkscape:window-width="1440"
     inkscape:window-height="837"
     inkscape:window-x="-8"
     inkscape:window-y="-8"
     inkscape:window-maximized="1"
     inkscape:current-layer="layer1" />
  <defs
     id="defs1">
    <radialGradient
       inkscape:collect="always"
       xlink:href="#linearGradient269"
       id="radialGradient268"
       gradientUnits="userSpaceOnUse"
       gradientTransform="matrix(1.1190934,0,0,0.17031669,-1009.1995,-6.1220588)"
       cx="937.26489"
       cy="70.898216"
       fx="937.26489"
       fy="70.898216"
       r="34.953053" />
    <linearGradient
       id="linearGradient269"
       inkscape:collect="always">
      <stop
         style="stop-color:#d75b06;stop-opacity:1;"
         offset="0"
         id="stop269" />
      <stop
         style="stop-color:#f97316;stop-opacity:1;"
         offset="1"
         id="stop268" />
    </linearGradient>
    <radialGradient
       inkscape:collect="always"
       xlink:href="#linearGradient269"
       id="radialGradient1"
       gradientUnits="userSpaceOnUse"
       gradientTransform="matrix(1,0,0,0.15219165,0.98221551,82.745831)"
       cx="937.26489"
       cy="70.898216"
       fx="937.26489"
       fy="70.898216"
       r="34.953053" />
    <radialGradient
       inkscape:collect="always"
       xlink:href="#linearGradient269"
       id="radialGradient2"
       gradientUnits="userSpaceOnUse"
       gradientTransform="matrix(1,0,0,0.15219165,0.98221551,82.745831)"
       cx="937.26489"
       cy="70.898216"
       fx="937.26489"
       fy="70.898216"
       r="34.953053" />
    <radialGradient
       inkscape:collect="always"
       xlink:href="#linearGradient269"
       id="radialGradient4"
       gradientUnits="userSpaceOnUse"
       gradientTransform="matrix(1,0,0,0.15219165,0.98221551,82.745831)"
       cx="937.26489"
       cy="70.898216"
       fx="937.26489"
       fy="70.898216"
       r="34.953053" />
    <radialGradient
       inkscape:collect="always"
       xlink:href="#linearGradient269"
       id="radialGradient6"
       gradientUnits="userSpaceOnUse"
       gradientTransform="matrix(1,0,0,0.15219165,0.98221551,82.745831)"
       cx="937.26489"
       cy="70.898216"
       fx="937.26489"
       fy="70.898216"
       r="34.953053" />
    <radialGradient
       inkscape:collect="always"
       xlink:href="#linearGradient269"
       id="radialGradient8"
       gradientUnits="userSpaceOnUse"
       gradientTransform="matrix(1,0,0,0.15219165,0.98221551,82.745831)"
       cx="937.26489"
       cy="70.898216"
       fx="937.26489"
       fy="70.898216"
       r="34.953053" />
    <radialGradient
       inkscape:collect="always"
       xlink:href="#linearGradient269"
       id="radialGradient10"
       gradientUnits="userSpaceOnUse"
       gradientTransform="matrix(1,0,0,0.15219165,0.98221551,82.745831)"
       cx="937.26489"
       cy="70.898216"
       fx="937.26489"
       fy="70.898216"
       r="34.953053" />
  </defs>
  <g
     inkscape:label="Camada 1"
     inkscape:groupmode="layer"
     id="layer1">
    <g
       id="text268"
       style="font-weight:300;font-size:15.875px;line-height:1;font-family:Kalnia;-inkscape-font-specification:'Kalnia Light';text-align:center;letter-spacing:0px;text-anchor:middle;fill:url(#radialGradient268);stroke-width:3.21425;stroke-miterlimit:1;stroke-dasharray:6.42848, 3.21425;paint-order:fill markers stroke"
       aria-label="Craftools">
      <path
         style="font-weight:normal;font-family:Kikuta;-inkscape-font-specification:Kikuta"
         d="m 0.57152719,10.366299 q 0,0.396875 0.206375,0.682625 0.22225001,0.28575 0.55562501,0.47625 0.34925,0.1905 0.762,0.28575 0.41275,0.09525 0.809625,0.09525 h 3.730625 q 0.41275,0 0.841375,-0.09525 0.4445,-0.111125 0.79375,-0.3175 0.34925,-0.22225 0.5715,-0.53975 0.22225,-0.333375 0.22225,-0.762 V 8.6041737 q 0,-0.238125 -0.127,-0.428625 -0.127,-0.1905 -0.333375,-0.3175 -0.206375,-0.142875 -0.428625,-0.206375 -0.22225,-0.0635 -0.4445,-0.0635 -0.4445,0 -0.8255,0.28575 -0.381,0.269875 -0.381,0.73025 0,0.22225 -0.111125,0.41275 -0.111125,0.1905 -0.301625,0.333375 -0.174625,0.127 -0.41275,0.206375 -0.22225,0.0635 -0.460375,0.0635 -0.492125,0 -0.889,-0.28575 -0.381,-0.28575 -0.381,-0.714375 v -5.87375 q 0,-0.428625 0.381,-0.6985 0.396875,-0.28575 0.873125,-0.28575 0.254,0 0.47625,0.079375 0.238125,0.0635 0.41275,0.206375 0.1905,0.127 0.301625,0.3175 0.111125,0.174625 0.111125,0.396875 0,0.460375 0.381,0.746125 0.381,0.28575 0.8255,0.28575 0.22225,0 0.4445,-0.0635 0.22225,-0.0635 0.428625,-0.1905 0.206375,-0.142875 0.333375,-0.333375 0.127,-0.1905 0.127,-0.428625 v -1.254125 q 0,-0.396875 -0.22225,-0.68262499 -0.22225,-0.28575 -0.5715,-0.47625 -0.333375,-0.1905 -0.762,-0.269875 -0.41275,-0.09525000394 -0.809625,-0.09525000394 h -3.794125 q -0.396875,0 -0.809625,0.09525000394 -0.41275,0.09525 -0.762,0.28575 -0.333375,0.1905 -0.55562501,0.47625 -0.206375,0.28574999 -0.206375,0.68262499 z M 18.510266,5.4609237 q 0,-0.396875 -0.22225,-0.682625 -0.206375,-0.28575 -0.53975,-0.47625 -0.333375,-0.1905 -0.746125,-0.28575 -0.41275,-0.09525 -0.809625,-0.09525 h -3.857625 q -0.396875,0 -0.809625,0.09525 -0.41275,0.09525 -0.746125,0.28575 -0.333375,0.1905 -0.555625,0.47625 -0.206375,0.28575 -0.206375,0.682625 v 5.2228753 q 0,0.301625 0.15875,0.53975 0.15875,0.22225 0.41275,0.381 0.269875,0.142875 0.5715,0.22225 0.3175,0.07938 0.60325,0.07938 0.28575,0 0.5715,-0.07938 0.301625,-0.07937 0.53975,-0.238125 0.238125,-0.15875 0.381,-0.381 0.142875,-0.22225 0.142875,-0.523875 V 6.6991737 q 0,-0.41275 0.365125,-0.6985 0.381,-0.28575 0.904875,-0.28575 0.523875,0 0.904875,0.28575 0.396875,0.28575 0.396875,0.6985 0,0.238125 0.127,0.428625 0.127,0.1905 0.333375,0.333375 0.206375,0.127 0.4445,0.1905 0.238125,0.0635 0.4445,0.0635 0.428625,0 0.809625,-0.269875 0.381,-0.28575 0.381,-0.746125 z m 3.492489,3.667125 q 0,0.41275 0.365125,0.6985 0.381,0.2857503 0.904875,0.2857503 0.523875,0 0.904875,-0.2857503 0.396875,-0.28575 0.396875,-0.6985 0,-0.41275 -0.396875,-0.6985 -0.381,-0.28575 -0.904875,-0.28575 -0.523875,0 -0.904875,0.28575 -0.365125,0.28575 -0.365125,0.6985 z m 2.794,-2.413 v -0.47625 h -4.318 q -0.428625,0 -0.73025,-0.3175 -0.28575,-0.333375 -0.28575,-0.762 0,-0.22225 0.07937,-0.428625 0.07937,-0.22225 0.206375,-0.396875 0.142875,-0.1905 0.333375,-0.301625 0.1905,-0.111125 0.396875,-0.111125 h 5.159375 q 0.396875,0 0.809625,0.09525 0.41275,0.09525 0.746125,0.28575 0.333375,0.1905 0.53975,0.47625 0.22225,0.28575 0.22225,0.682625 v 4.9053753 q 0,0.396875 -0.22225,0.682625 -0.206375,0.28575 -0.53975,0.47625 -0.333375,0.1905 -0.746125,0.28575 -0.41275,0.09525 -0.809625,0.09525 h -3.857625 q -0.396875,0 -0.809625,-0.09525 -0.41275,-0.09525 -0.746125,-0.28575 -0.333375,-0.1905 -0.555625,-0.47625 -0.206375,-0.28575 -0.206375,-0.682625 V 8.2549237 q 0,-0.396875 0.206375,-0.682625 0.22225,-0.28575 0.555625,-0.47625 0.333375,-0.1905 0.746125,-0.28575 0.41275,-0.09525 0.809625,-0.09525 z"
         id="path1" />
      <path
         style="font-weight:bold;font-family:Kikuta;-inkscape-font-specification:'Kikuta Bold'"
         d="m 31.257869,-7.6293945e-5 q -0.396875,0 -0.809625,0.09525000394 -0.41275,0.09525 -0.762,0.28575 -0.333375,0.1905 -0.555625,0.47625 -0.22225,0.28574999 -0.22225,0.68262499 v 9.0011253 q 0,0.333375 0.1905,0.587375 0.1905,0.254 0.492125,0.428625 0.301625,0.174625 0.650875,0.269875 0.365125,0.07938 0.714375,0.07938 0.34925,0 0.6985,-0.07938 0.365125,-0.09525 0.650875,-0.269875 0.301625,-0.174625 0.492125,-0.428625 0.1905,-0.254 0.1905,-0.587375 V 7.2230487 q 0,-0.41275 0.34925,-0.6985 0.365125,-0.28575 0.79375,-0.28575 0.269875,0 0.47625,-0.111125 0.206375,-0.111125 0.34925,-0.28575 0.15875,-0.1905 0.238125,-0.41275 0.07938,-0.22225 0.07938,-0.428625 0,-0.428625 -0.301625,-0.746125 -0.28575,-0.333375 -0.714375,-0.333375 h -1.27 v -0.619125 q 0,-0.41275 0.365125,-0.6985 0.381,-0.28575 0.904875,-0.28575 h 1.524 q 0.428625,0 0.714375,-0.3175 0.301625,-0.333375 0.301625,-0.762 0,-0.22225 -0.07937,-0.42862499 -0.07937,-0.22225 -0.22225,-0.396875 -0.127,-0.1905 -0.3175,-0.301625 Q 36.004494,-7.6293945e-5 35.782244,-7.6293945e-5 Z M 41.751244,7.2230487 q 0,-0.41275 0.365125,-0.6985 0.381,-0.28575 0.873125,-0.28575 0.238125,0 0.428625,-0.111125 0.1905,-0.111125 0.3175,-0.28575 0.142875,-0.1905 0.22225,-0.41275 0.07937,-0.22225 0.07937,-0.428625 0,-0.428625 -0.301625,-0.746125 -0.28575,-0.333375 -0.714375,-0.333375 h -1.27 v -2.555875 q 0,-0.333375 -0.1905,-0.58737499 -0.1905,-0.254 -0.492125,-0.428625 -0.28575,-0.174625 -0.650875,-0.254 -0.34925,-0.09525000394 -0.6985,-0.09525000394 -0.34925,0 -0.714375,0.09525000394 -0.34925,0.079375 -0.650875,0.254 -0.301625,0.174625 -0.492125,0.428625 -0.1905,0.25399999 -0.1905,0.58737499 v 9.0011253 q 0,0.396875 0.22225,0.682625 0.22225,0.28575 0.555625,0.47625 0.34925,0.1905 0.762,0.28575 0.41275,0.09525 0.809625,0.09525 h 4.524375 q 0.22225,0 0.396875,-0.111125 0.1905,-0.111125 0.3175,-0.28575 0.142875,-0.1905 0.22225,-0.41275 0.07937,-0.22225 0.07937,-0.428625 0,-0.428625 -0.301625,-0.7461253 -0.28575,-0.333375 -0.714375,-0.333375 h -1.524 q -0.523875,0 -0.904875,-0.28575 -0.365125,-0.28575 -0.365125,-0.6985 z"
         id="path2" />
      <path
         style="font-weight:normal;font-family:Kikuta;-inkscape-font-specification:Kikuta"
         d="m 48.990235,6.6991737 q 0,-0.41275 0.365125,-0.6985 0.381,-0.28575 0.904875,-0.28575 0.523875,0 0.904875,0.28575 0.396875,0.28575 0.396875,0.6985 v 1.49225 q 0,0.41275 -0.396875,0.6985 -0.381,0.28575 -0.904875,0.28575 -0.523875,0 -0.904875,-0.28575 -0.365125,-0.28575 -0.365125,-0.6985 z M 54.94336,10.366299 V 5.4609237 q 0,-0.396875 -0.22225,-0.682625 -0.206375,-0.28575 -0.53975,-0.47625 -0.333375,-0.1905 -0.746125,-0.28575 -0.41275,-0.09525 -0.809625,-0.09525 h -3.857625 q -0.396875,0 -0.809625,0.09525 -0.41275,0.09525 -0.746125,0.28575 -0.333375,0.1905 -0.555625,0.47625 -0.206375,0.28575 -0.206375,0.682625 v 4.9053753 q 0,0.396875 0.206375,0.682625 0.22225,0.28575 0.555625,0.47625 0.333375,0.1905 0.746125,0.28575 0.41275,0.09525 0.809625,0.09525 h 3.857625 q 0.396875,0 0.809625,-0.09525 0.41275,-0.09525 0.746125,-0.28575 0.333375,-0.1905 0.53975,-0.47625 0.22225,-0.28575 0.22225,-0.682625 z m 3.492489,-3.6671253 q 0,-0.41275 0.365125,-0.6985 0.381,-0.28575 0.904875,-0.28575 0.523875,0 0.904875,0.28575 0.396875,0.28575 0.396875,0.6985 v 1.49225 q 0,0.41275 -0.396875,0.6985 -0.381,0.28575 -0.904875,0.28575 -0.523875,0 -0.904875,-0.28575 -0.365125,-0.28575 -0.365125,-0.6985 z m 5.953125,3.6671253 V 5.4609237 q 0,-0.396875 -0.22225,-0.682625 -0.206375,-0.28575 -0.53975,-0.47625 -0.333375,-0.1905 -0.746125,-0.28575 -0.41275,-0.09525 -0.809625,-0.09525 h -3.857625 q -0.396875,0 -0.809625,0.09525 -0.41275,0.09525 -0.746125,0.28575 -0.333375,0.1905 -0.555625,0.47625 -0.206375,0.28575 -0.206375,0.682625 v 4.9053753 q 0,0.396875 0.206375,0.682625 0.22225,0.28575 0.555625,0.47625 0.333375,0.1905 0.746125,0.28575 0.41275,0.09525 0.809625,0.09525 h 3.857625 q 0.396875,0 0.809625,-0.09525 0.41275,-0.09525 0.746125,-0.28575 0.333375,-0.1905 0.53975,-0.47625 0.22225,-0.28575 0.22225,-0.682625 z"
         id="path3" />
      <path
         style="font-weight:normal;font-family:Kikuta;-inkscape-font-specification:Kikuta"
         d="m 65.341463,1.2222987 v 9.4615003 q 0,0.28575 0.15875,0.523875 0.174625,0.22225 0.428625,0.381 0.254,0.15875 0.555625,0.238125 0.301625,0.07938 0.587375,0.07938 0.28575,0 0.5715,-0.07938 0.301625,-0.09525 0.53975,-0.254 0.238125,-0.15875 0.381,-0.381 0.15875,-0.22225 0.15875,-0.508 V 1.2222987 q 0,-0.28574999 -0.15875,-0.50799999 -0.142875,-0.22225 -0.381,-0.381 -0.238125,-0.15875 -0.53975,-0.238125 -0.28575,-0.09525000394 -0.5715,-0.09525000394 -0.28575,0 -0.587375,0.09525000394 -0.301625,0.079375 -0.555625,0.238125 -0.254,0.15875 -0.428625,0.381 -0.15875,0.22225 -0.15875,0.50799999 z"
         id="path4" />
      <path
         style="font-weight:bold;font-family:Kikuta;-inkscape-font-specification:'Kikuta Bold'"
         d="m 76.469848,11.906174 q 0.396875,0 0.809625,-0.09525 0.41275,-0.09525 0.746125,-0.28575 0.34925,-0.1905 0.555625,-0.47625 0.22225,-0.28575 0.22225,-0.682625 V 8.3025487 q 0,-0.396875 -0.22225,-0.682625 -0.206375,-0.301625 -0.53975,-0.47625 -0.333375,-0.1905 -0.746125,-0.28575 -0.41275,-0.09525 -0.809625,-0.09525 h -4.492625 v -0.523875 h 5.794375 q 0.428625,0 0.714375,-0.3175 0.301625,-0.333375 0.301625,-0.762 0,-0.22225 -0.07937,-0.428625 -0.07937,-0.22225 -0.22225,-0.396875 -0.127,-0.1905 -0.3175,-0.301625 -0.174625,-0.111125 -0.396875,-0.111125 h -5.794375 q -0.396875,0 -0.809625,0.09525 -0.41275,0.09525 -0.746125,0.28575 -0.333375,0.1905 -0.555625,0.47625 -0.206375,0.28575 -0.206375,0.682625 v 2.06375 q 0,0.396875 0.206375,0.682625 0.22225,0.28575 0.555625,0.47625 0.333375,0.1905 0.746125,0.28575 0.41275,0.09525 0.809625,0.09525 h 3.01625 v 0.523875 h -4.318 q -0.428625,0 -0.73025,0.333375 -0.28575,0.3175003 -0.28575,0.7461253 0,0.206375 0.07937,0.428625 0.07937,0.22225 0.206375,0.41275 0.142875,0.174625 0.333375,0.28575 0.1905,0.111125 0.396875,0.111125 z"
         id="path5" />
    </g>
  </g>
</svg>
